<svg xmlns="http://www.w3.org/2000/svg" version="1.1" xmlns:xlink="http://www.w3.org/1999/xlink" width="512" height="512" x="0" y="0" viewBox="0 0 24 24" style="enable-background:new 0 0 512 512" xml:space="preserve" class=""><g><linearGradient id="a" x1="4.97" x2="19.03" y1="4.97" y2="19.03" gradientUnits="userSpaceOnUse"><stop offset="0" stop-color="#fff1bf"></stop><stop offset=".295" stop-color="#ec458d"></stop><stop offset=".393" stop-color="#e14591"></stop><stop offset=".561" stop-color="#c6469d"></stop><stop offset=".778" stop-color="#9a49b1"></stop><stop offset="1" stop-color="#664cc9"></stop></linearGradient><path fill="url(#a)" d="M22 15.75a.75.75 0 0 1-.75-.75V9a.75.75 0 0 1 1.5 0v6a.75.75 0 0 1-.75.75zM19.417 17V7a.75.75 0 0 0-1.5 0v10a.75.75 0 0 0 1.5 0zm-3.334-3v-4a.75.75 0 0 0-1.5 0v4a.75.75 0 0 0 1.5 0zm-3.333 4V6a.75.75 0 0 0-1.5 0v12a.75.75 0 0 0 1.5 0zm-3.333 2V4a.75.75 0 0 0-1.5 0v16a.75.75 0 0 0 1.5 0zm-3.334-4V8a.75.75 0 0 0-1.5 0v8a.75.75 0 0 0 1.5 0zM2.75 15V9a.75.75 0 0 0-1.5 0v6a.75.75 0 0 0 1.5 0z" opacity="1" data-original="url(#a)" class=""></path></g></svg>